External Loads File
version=1
nRows=62
nColumns=13
Range=5.000000e-03-10 seconds
endheader
time 	forceRightX 	forceRightY 	forceRightZ 	pointRightX 	pointRightY 	pointRightZ 	forceLeftX 	forceLeftY 	forceLeftZ 	pointLeftX 	pointLeftY 	pointLeftZ 		
7.505000 -81.696139 -80.058162 -0.000000 0.241432 0.518279 -0.123178 137.100814 617.186341 -0.000000 0.286504 0.155365 -0.365387
7.510000 -87.560413 -76.897989 -0.000000 0.251069 0.520458 -0.123291 146.970165 587.231338 -0.000000 0.277604 0.153887 -0.365000
7.515000 -92.611069 -71.769596 -0.000000 0.260157 0.521949 -0.123581 154.631600 554.836552 -0.000000 0.268524 0.153038 -0.364847
7.520000 -97.002474 -64.538546 -0.000000 0.269482 0.522603 -0.123702 161.060584 519.527326 -0.000000 0.259352 0.153023 -0.364780
7.525000 -100.691105 -55.380950 -0.000000 0.278839 0.522385 -0.123892 165.225984 481.519837 -0.000000 0.250519 0.153699 -0.364463
7.530000 -103.836974 -44.288205 -0.000000 0.287915 0.521546 -0.123776 166.924259 441.059354 -0.000000 0.241794 0.155118 -0.364216
7.535000 -106.726669 -31.157800 -0.000000 0.296668 0.519836 -0.123613 166.007623 398.659581 -0.000000 0.233249 0.157100 -0.364009
7.540000 -109.787419 -15.688122 -0.000000 0.305193 0.517005 -0.123372 162.730782 354.952836 -0.000000 0.224900 0.159848 -0.363863
7.545000 -113.499614 2.433824 -0.000000 0.313415 0.513679 -0.122976 157.013191 310.953053 -0.000000 0.216781 0.163225 -0.363723
7.550000 -118.415497 23.725423 -0.000000 0.321403 0.509424 -0.122464 149.222624 267.658809 -0.000000 0.208990 0.167188 -0.363521
7.555000 -125.061391 48.721352 -0.000000 0.329082 0.504476 -0.122010 139.770869 226.131883 -0.000000 0.201422 0.171766 -0.363414
7.560000 -133.867986 77.864719 -0.000000 0.336397 0.498554 -0.121540 129.138497 187.369194 -0.000000 0.194141 0.176813 -0.363178
7.565000 -145.093240 111.415318 -0.000000 0.343310 0.491859 -0.121023 117.888940 152.170008 -0.000000 0.187120 0.182459 -0.363485
7.570000 -158.651021 149.458717 -0.000000 0.350237 0.484606 -0.120426 106.697093 121.002100 -0.000000 0.180341 0.188600 -0.363154
7.575000 -174.228070 191.614614 -0.000000 0.356610 0.476892 -0.119996 96.022711 94.178276 -0.000000 0.173210 0.195232 -0.360258
7.580000 -191.667832 236.817795 -0.000000 0.363064 0.468669 -0.119880 86.128276 71.887627 -0.000000 0.167010 0.202313 -0.360002
7.585000 -210.102045 284.230266 -0.000000 0.369108 0.459795 -0.119755 77.466796 53.783572 -0.000000 0.161037 0.209893 -0.359750
7.590000 -228.648348 332.747838 -0.000000 0.375124 0.450593 -0.119668 70.216707 39.458151 -0.000000 0.155544 0.218115 -0.359553
7.595000 -247.089737 380.823430 -0.000000 0.380447 0.440968 -0.119549 64.349913 28.553393 -0.000000 0.150350 0.226506 -0.359659
7.600000 -264.470707 427.599778 -0.000000 0.385441 0.431038 -0.119493 59.851743 20.520957 -0.000000 0.145511 0.235123 -0.359518
7.605000 -280.268943 472.183518 -0.000000 0.390051 0.420812 -0.119309 56.581521 14.926847 -0.000000 0.141229 0.243973 -0.359445
7.610000 -293.643301 514.196468 -0.000000 0.394229 0.410268 -0.119183 54.342291 11.324818 -0.000000 0.137306 0.253050 -0.359374
7.615000 -304.253496 553.297046 -0.000000 0.397949 0.399703 -0.119191 52.880020 9.361118 -0.000000 0.133932 0.262612 -0.359365
7.620000 -311.691438 589.502702 -0.000000 0.401230 0.389016 -0.119139 51.965324 8.698120 -0.000000 0.131107 0.272501 -0.359311
7.625000 -315.228213 623.247366 -0.000000 0.404117 0.377979 -0.119067 51.436065 8.975912 -0.000000 0.128695 0.282594 -0.359455
7.630000 -315.185622 654.558175 -0.000000 0.406407 0.366784 -0.118862 51.179064 9.902123 -0.000000 0.126899 0.292885 -0.359582
7.635000 -311.841396 683.549195 -0.000000 0.408052 0.355708 -0.118821 51.115073 11.165996 -0.000000 0.125721 0.303386 -0.359664
7.640000 -304.132072 710.936004 -0.000000 0.409155 0.344304 -0.118693 51.193627 12.379918 -0.000000 0.124901 0.313951 -0.359657
7.645000 -293.371877 736.359884 -0.000000 0.409684 0.333210 -0.118314 51.330085 13.355541 -0.000000 0.124642 0.324730 -0.359776
7.650000 -279.085972 760.210689 -0.000000 0.409718 0.322025 -0.117941 51.485061 13.791333 -0.000000 0.124965 0.335564 -0.359720
7.655000 -262.139656 782.220476 -0.000000 0.409327 0.310993 -0.118359 51.613502 13.500050 -0.000000 0.125810 0.346467 -0.359822
7.660000 -241.209130 802.687824 -0.000000 0.408386 0.300012 -0.118148 51.709087 12.153811 -0.000000 0.127243 0.357865 -0.359693
7.665000 -219.894248 820.217879 -0.000000 0.406770 0.289335 -0.117968 51.666154 9.756573 -0.000000 0.129124 0.368758 -0.359698
7.670000 -194.717439 835.473368 -0.000000 0.404377 0.278204 -0.117915 51.441576 5.922065 -0.000000 0.131529 0.379641 -0.359583
7.675000 -169.902105 847.167963 -0.000000 0.401478 0.268046 -0.117730 50.864216 0.868231 -0.000000 0.134418 0.390588 -0.359477
7.680000 -145.302676 855.398824 -0.000000 0.398154 0.258373 -0.118608 49.814925 -5.310149 -0.000000 0.137861 0.401293 -0.359385
7.685000 -119.778376 860.440853 -0.000000 0.394198 0.248694 -0.117459 48.171196 -12.414211 -0.000000 0.141692 0.411796 -0.359304
7.690000 -94.324390 862.255395 -0.000000 0.389581 0.239170 -0.117227 45.838466 -20.000735 -0.000000 0.146001 0.421926 -0.359225
7.695000 -68.994522 861.038689 -0.000000 0.384265 0.230241 -0.116956 42.743185 -27.605954 -0.000000 0.151228 0.431742 -0.358881
7.700000 -45.156676 856.915422 -0.000000 0.378579 0.221581 -0.117049 38.895539 -34.650897 -0.000000 0.156690 0.441087 -0.361088
7.705000 -23.701391 850.110750 -0.000000 0.372450 0.213469 -0.116898 34.356343 -40.574475 -0.000000 0.162037 0.450162 -0.360241
7.710000 -2.698846 840.845854 -0.000000 0.365843 0.205890 -0.116735 29.073698 -44.942962 -0.000000 0.168132 0.458870 -0.359742
7.715000 19.598405 829.061561 -0.000000 0.358753 0.198595 -0.116368 22.983607 -47.314341 -0.000000 0.175349 0.467354 -0.360727
7.720000 37.816750 814.812845 -0.000000 0.351275 0.192111 -0.116196 16.455343 -47.170649 -0.000000 0.182224 0.474484 -0.360474
7.725000 56.081896 797.967291 -0.000000 0.343404 0.186151 -0.116138 9.314580 -44.500263 -0.000000 0.189593 0.481355 -0.360360
7.730000 73.536353 778.424084 -0.000000 0.335191 0.180585 -0.115979 1.639409 -39.395580 -0.000000 0.197198 0.487565 -0.360148
7.735000 90.802003 755.944105 -0.000000 0.326617 0.175721 -0.115769 -6.572241 -32.185101 -0.000000 0.205344 0.493213 -0.360036
7.740000 107.459974 730.345552 -0.000000 0.317776 0.171474 -0.115457 -15.233925 -23.367964 -0.000000 0.213881 0.498217 -0.359986
7.745000 122.751525 701.558657 -0.000000 0.308585 0.167875 -0.115379 -24.209189 -13.607497 -0.000000 0.222514 0.501927 -0.360137
7.750000 137.350576 669.383013 -0.000000 0.299186 0.164982 -0.115262 -33.342490 -3.607905 -0.000000 0.231428 0.505434 -0.360398
7.755000 151.307169 633.778169 -0.000000 0.289377 0.162739 -0.114920 -42.404918 5.936863 -0.000000 0.240685 0.507977 -0.360931
7.760000 162.689611 595.292264 -0.000000 0.279815 0.161192 -0.114966 -51.209264 14.268267 -0.000000 0.249883 0.509949 -0.360744
7.765000 172.502597 553.901490 -0.000000 0.269964 0.160367 -0.114907 -59.587864 20.984590 -0.000000 0.259074 0.511359 -0.360808
7.770000 180.245280 510.063645 -0.000000 0.260094 0.160271 -0.114815 -67.429760 25.859608 -0.000000 0.268292 0.512034 -0.361111
7.775000 185.566057 464.368598 -0.000000 0.250254 0.160915 -0.114693 -74.705249 28.990175 -0.000000 0.277385 0.512069 -0.360958
7.780000 188.556673 417.376854 -0.000000 0.240519 0.162209 -0.114437 -81.460384 30.854863 -0.000000 0.286468 0.511387 -0.361871
7.785000 188.891163 369.955278 -0.000000 0.231013 0.164281 -0.114233 -87.869589 32.098821 -0.000000 0.295321 0.509954 -0.361931
7.790000 186.961713 322.750505 -0.000000 0.221739 0.167151 -0.114083 -94.118712 33.635616 -0.000000 0.304036 0.507545 -0.361975
7.795000 182.710692 276.689714 -0.000000 0.212740 0.170460 -0.113967 -100.453998 36.281621 -0.000000 0.312487 0.504589 -0.362240
7.800000 176.698795 232.354692 -0.000000 0.204030 0.174597 -0.113846 -107.075055 40.948812 -0.000000 0.320800 0.500852 -0.362401
7.805000 169.044578 190.621890 -0.000000 0.195683 0.179214 -0.113696 -114.284753 48.264020 -0.000000 0.328749 0.496401 -0.362582
7.810000 160.316810 152.010665 -0.000000 0.187689 0.184385 -0.113567 -122.341142 58.953790 -0.000000 0.336419 0.491110 -0.362711
